<mxfile host="app.diagrams.net" modified="2024-03-28T04:01:15.453Z" agent="Mozilla/5.0 (Windows NT 10.0; Win64; x64) AppleWebKit/537.36 (KHTML, like Gecko) Chrome/123.0.0.0 Safari/537.36" etag="7D_pWrb3YhUE8Gb94mTh" version="24.2.0" type="github">
  <diagram id="C5RBs43oDa-KdzZeNtuy" name="Page-1">
    <mxGraphModel dx="366" dy="269" grid="1" gridSize="10" guides="1" tooltips="1" connect="1" arrows="1" fold="1" page="1" pageScale="1" pageWidth="827" pageHeight="1169" math="0" shadow="0">
      <root>
        <mxCell id="WIyWlLk6GJQsqaUBKTNV-0" />
        <mxCell id="WIyWlLk6GJQsqaUBKTNV-1" parent="WIyWlLk6GJQsqaUBKTNV-0" />
        <mxCell id="emHu-cfzv6c4kefyn8a2-1" value="Teams" style="swimlane;fontStyle=1;align=center;verticalAlign=top;childLayout=stackLayout;horizontal=1;startSize=20;horizontalStack=0;resizeParent=1;resizeParentMax=0;resizeLast=0;collapsible=1;marginBottom=0;whiteSpace=wrap;html=1;" vertex="1" collapsed="1" parent="WIyWlLk6GJQsqaUBKTNV-1">
          <mxGeometry x="50" y="30" width="80" height="30" as="geometry">
            <mxRectangle x="50" y="30" width="170" height="186" as="alternateBounds" />
          </mxGeometry>
        </mxCell>
        <mxCell id="emHu-cfzv6c4kefyn8a2-2" value="- name: String&lt;div&gt;- description: String&lt;/div&gt;&lt;div&gt;- teamID: int&lt;/div&gt;&lt;div&gt;- &lt;u&gt;numberOfTeams&lt;/u&gt;: int&lt;/div&gt;&lt;div&gt;- &lt;u&gt;teamsList&lt;/u&gt;: ArrayList&lt;/div&gt;&lt;div&gt;- &lt;u&gt;availableTeamIDs&lt;/u&gt;: ArrayList&lt;/div&gt;" style="text;strokeColor=none;fillColor=none;align=left;verticalAlign=top;spacingLeft=4;spacingRight=4;overflow=hidden;rotatable=0;points=[[0,0.5],[1,0.5]];portConstraint=eastwest;whiteSpace=wrap;html=1;" vertex="1" parent="emHu-cfzv6c4kefyn8a2-1">
          <mxGeometry y="20" width="170" height="90" as="geometry" />
        </mxCell>
        <mxCell id="emHu-cfzv6c4kefyn8a2-3" value="" style="line;strokeWidth=1;fillColor=none;align=left;verticalAlign=middle;spacingTop=-1;spacingLeft=3;spacingRight=3;rotatable=0;labelPosition=right;points=[];portConstraint=eastwest;strokeColor=inherit;" vertex="1" parent="emHu-cfzv6c4kefyn8a2-1">
          <mxGeometry y="110" width="170" height="10" as="geometry" />
        </mxCell>
        <mxCell id="emHu-cfzv6c4kefyn8a2-4" value="+ Teams(String, String)&lt;div&gt;+ getTeamID(): int&lt;/div&gt;&lt;div&gt;+ &lt;u&gt;getTeamIDList()&lt;/u&gt;: int&lt;/div&gt;&lt;div&gt;+ &lt;u&gt;removeTeam(int)&lt;/u&gt;: void&lt;/div&gt;" style="text;strokeColor=none;fillColor=none;align=left;verticalAlign=top;spacingLeft=4;spacingRight=4;overflow=hidden;rotatable=0;points=[[0,0.5],[1,0.5]];portConstraint=eastwest;whiteSpace=wrap;html=1;" vertex="1" parent="emHu-cfzv6c4kefyn8a2-1">
          <mxGeometry y="120" width="170" height="66" as="geometry" />
        </mxCell>
        <mxCell id="emHu-cfzv6c4kefyn8a2-6" value="Stage" style="swimlane;fontStyle=1;align=center;verticalAlign=top;childLayout=stackLayout;horizontal=1;startSize=20;horizontalStack=0;resizeParent=1;resizeParentMax=0;resizeLast=0;collapsible=1;marginBottom=0;whiteSpace=wrap;html=1;" vertex="1" collapsed="1" parent="WIyWlLk6GJQsqaUBKTNV-1">
          <mxGeometry x="140" y="30" width="80" height="30" as="geometry">
            <mxRectangle x="400" y="50" width="330" height="300" as="alternateBounds" />
          </mxGeometry>
        </mxCell>
        <mxCell id="emHu-cfzv6c4kefyn8a2-7" value="- raceID: int&lt;div&gt;- stageName: String&lt;/div&gt;&lt;div&gt;- description: String&lt;/div&gt;&lt;div&gt;- length: double&lt;/div&gt;&lt;div&gt;- startTime: LocalDateTime&lt;/div&gt;&lt;div&gt;- type: StageType&lt;/div&gt;&lt;div&gt;- stageID: int&lt;/div&gt;&lt;div&gt;-&amp;nbsp;&lt;u&gt;numberOfStages = 0&lt;/u&gt;: int&lt;/div&gt;&lt;div&gt;- stageState = &quot;not waiting for results&quot;: String&lt;/div&gt;&lt;div&gt;# &lt;u&gt;stagesList&lt;/u&gt;: ArrayList&lt;/div&gt;&lt;div&gt;- &lt;u&gt;stagesInRace&lt;/u&gt;: ArrayList&lt;/div&gt;" style="text;strokeColor=none;fillColor=none;align=left;verticalAlign=top;spacingLeft=4;spacingRight=4;overflow=hidden;rotatable=0;points=[[0,0.5],[1,0.5]];portConstraint=eastwest;whiteSpace=wrap;html=1;" vertex="1" parent="emHu-cfzv6c4kefyn8a2-6">
          <mxGeometry y="20" width="330" height="170" as="geometry" />
        </mxCell>
        <mxCell id="emHu-cfzv6c4kefyn8a2-8" value="" style="line;strokeWidth=1;fillColor=none;align=left;verticalAlign=middle;spacingTop=-1;spacingLeft=3;spacingRight=3;rotatable=0;labelPosition=right;points=[];portConstraint=eastwest;strokeColor=inherit;" vertex="1" parent="emHu-cfzv6c4kefyn8a2-6">
          <mxGeometry y="190" width="330" height="10" as="geometry" />
        </mxCell>
        <mxCell id="emHu-cfzv6c4kefyn8a2-9" value="+ Stage(int,String,String,double,LocalDateTime,StageType)&lt;div&gt;+ getStageID(): int&lt;/div&gt;&lt;div&gt;+ &lt;u&gt;numberOfStages(raceID)&lt;/u&gt;: int&lt;/div&gt;&lt;div&gt;+ &lt;u&gt;getLengthOfStages(stageID)&lt;/u&gt;: int&lt;/div&gt;&lt;div&gt;+ &lt;u&gt;getSTageIDList(raceID)&lt;/u&gt;: int&lt;/div&gt;&lt;div&gt;+ &lt;u&gt;changeStageState(stageID)&lt;/u&gt;: int&lt;/div&gt;" style="text;strokeColor=none;fillColor=none;align=left;verticalAlign=top;spacingLeft=4;spacingRight=4;overflow=hidden;rotatable=0;points=[[0,0.5],[1,0.5]];portConstraint=eastwest;whiteSpace=wrap;html=1;" vertex="1" parent="emHu-cfzv6c4kefyn8a2-6">
          <mxGeometry y="200" width="330" height="100" as="geometry" />
        </mxCell>
        <mxCell id="emHu-cfzv6c4kefyn8a2-10" value="Rider" style="swimlane;fontStyle=1;align=center;verticalAlign=top;childLayout=stackLayout;horizontal=1;startSize=20;horizontalStack=0;resizeParent=1;resizeParentMax=0;resizeLast=0;collapsible=1;marginBottom=0;whiteSpace=wrap;html=1;" vertex="1" collapsed="1" parent="WIyWlLk6GJQsqaUBKTNV-1">
          <mxGeometry x="230" y="30" width="80" height="30" as="geometry">
            <mxRectangle x="330" y="50" width="190" height="220" as="alternateBounds" />
          </mxGeometry>
        </mxCell>
        <mxCell id="emHu-cfzv6c4kefyn8a2-11" value="- name: String&lt;div&gt;- teamID: int&lt;/div&gt;&lt;div&gt;- yearOfBirth: int&lt;/div&gt;&lt;div&gt;- riderID: int&lt;/div&gt;&lt;div&gt;- &lt;u&gt;numberOfRiders=0&lt;/u&gt;: int&lt;/div&gt;&lt;div&gt;- &lt;u&gt;ridersList&lt;/u&gt;: ArrayList&lt;/div&gt;&lt;div&gt;# &lt;u&gt;ridersInTeam&lt;/u&gt;: ArrayList&lt;/div&gt;&lt;div&gt;# availableRiderIDs: ArrayList&lt;/div&gt;" style="text;strokeColor=none;fillColor=none;align=left;verticalAlign=top;spacingLeft=4;spacingRight=4;overflow=hidden;rotatable=0;points=[[0,0.5],[1,0.5]];portConstraint=eastwest;whiteSpace=wrap;html=1;" vertex="1" parent="emHu-cfzv6c4kefyn8a2-10">
          <mxGeometry y="20" width="190" height="120" as="geometry" />
        </mxCell>
        <mxCell id="emHu-cfzv6c4kefyn8a2-12" value="" style="line;strokeWidth=1;fillColor=none;align=left;verticalAlign=middle;spacingTop=-1;spacingLeft=3;spacingRight=3;rotatable=0;labelPosition=right;points=[];portConstraint=eastwest;strokeColor=inherit;" vertex="1" parent="emHu-cfzv6c4kefyn8a2-10">
          <mxGeometry y="140" width="190" height="10" as="geometry" />
        </mxCell>
        <mxCell id="emHu-cfzv6c4kefyn8a2-13" value="+ Rider(int, String, int)&lt;div&gt;+ getRiderID(): int&lt;/div&gt;&lt;div&gt;+ &lt;u&gt;getTeamRidersList(teamID)&lt;/u&gt;: int&lt;/div&gt;&lt;div&gt;+ &lt;u&gt;removeRider(riderID&lt;/u&gt;: void&lt;/div&gt;" style="text;strokeColor=none;fillColor=none;align=left;verticalAlign=top;spacingLeft=4;spacingRight=4;overflow=hidden;rotatable=0;points=[[0,0.5],[1,0.5]];portConstraint=eastwest;whiteSpace=wrap;html=1;" vertex="1" parent="emHu-cfzv6c4kefyn8a2-10">
          <mxGeometry y="150" width="190" height="70" as="geometry" />
        </mxCell>
        <mxCell id="emHu-cfzv6c4kefyn8a2-14" value="Teams" style="swimlane;fontStyle=1;align=center;verticalAlign=top;childLayout=stackLayout;horizontal=1;startSize=20;horizontalStack=0;resizeParent=1;resizeParentMax=0;resizeLast=0;collapsible=1;marginBottom=0;whiteSpace=wrap;html=1;" vertex="1" parent="WIyWlLk6GJQsqaUBKTNV-1">
          <mxGeometry x="180" y="110" width="170" height="186" as="geometry">
            <mxRectangle x="310" y="30" width="80" height="30" as="alternateBounds" />
          </mxGeometry>
        </mxCell>
        <mxCell id="emHu-cfzv6c4kefyn8a2-15" value="- name: String&lt;div&gt;- description: String&lt;/div&gt;&lt;div&gt;- teamID: int&lt;/div&gt;&lt;div&gt;- &lt;u&gt;numberOfTeams&lt;/u&gt;: int&lt;/div&gt;&lt;div&gt;- &lt;u&gt;teamsList&lt;/u&gt;: ArrayList&lt;/div&gt;&lt;div&gt;- &lt;u&gt;availableTeamIDs&lt;/u&gt;: ArrayList&lt;/div&gt;" style="text;strokeColor=none;fillColor=none;align=left;verticalAlign=top;spacingLeft=4;spacingRight=4;overflow=hidden;rotatable=0;points=[[0,0.5],[1,0.5]];portConstraint=eastwest;whiteSpace=wrap;html=1;" vertex="1" parent="emHu-cfzv6c4kefyn8a2-14">
          <mxGeometry y="20" width="170" height="90" as="geometry" />
        </mxCell>
        <mxCell id="emHu-cfzv6c4kefyn8a2-16" value="" style="line;strokeWidth=1;fillColor=none;align=left;verticalAlign=middle;spacingTop=-1;spacingLeft=3;spacingRight=3;rotatable=0;labelPosition=right;points=[];portConstraint=eastwest;strokeColor=inherit;" vertex="1" parent="emHu-cfzv6c4kefyn8a2-14">
          <mxGeometry y="110" width="170" height="10" as="geometry" />
        </mxCell>
        <mxCell id="emHu-cfzv6c4kefyn8a2-17" value="+ Teams(String, String)&lt;div&gt;+ getTeamID(): int&lt;/div&gt;&lt;div&gt;+ &lt;u&gt;getTeamIDList()&lt;/u&gt;: int&lt;/div&gt;&lt;div&gt;+ &lt;u&gt;removeTeam(int)&lt;/u&gt;: void&lt;/div&gt;" style="text;strokeColor=none;fillColor=none;align=left;verticalAlign=top;spacingLeft=4;spacingRight=4;overflow=hidden;rotatable=0;points=[[0,0.5],[1,0.5]];portConstraint=eastwest;whiteSpace=wrap;html=1;" vertex="1" parent="emHu-cfzv6c4kefyn8a2-14">
          <mxGeometry y="120" width="170" height="66" as="geometry" />
        </mxCell>
      </root>
    </mxGraphModel>
  </diagram>
</mxfile>
